<svg width="86" height="86" viewBox="0 0 86 86" fill="none" xmlns="http://www.w3.org/2000/svg">
    <path fill-rule="evenodd" clip-rule="evenodd" d="M32.9442 25.9911C34.5923 24.343 36.8276 23.4171 39.1584 23.4171C40.3125 23.4171 41.4552 23.6444 42.5215 24.086C43.5877 24.5277 44.5565 25.175 45.3725 25.9911C46.1886 26.8071 46.8359 27.7759 47.2776 28.8421C47.7192 29.9084 47.9465 31.0511 47.9465 32.2052C47.9465 33.3593 47.7192 34.5021 47.2776 35.5683C46.8359 36.6345 46.1886 37.6033 45.3725 38.4194C44.5565 39.2354 43.5877 39.8827 42.5215 40.3244C41.4552 40.766 40.3125 40.9933 39.1584 40.9933C36.8276 40.9933 34.5923 40.0674 32.9442 38.4194C31.2962 36.7713 30.3703 34.536 30.3703 32.2052C30.3703 29.8745 31.2962 27.6392 32.9442 25.9911ZM39.1584 27.3229C37.8635 27.3229 36.6217 27.8373 35.7061 28.7529C34.7905 29.6685 34.2761 30.9103 34.2761 32.2052C34.2761 33.5001 34.7905 34.7419 35.7061 35.6575C36.6217 36.5731 37.8635 37.0875 39.1584 37.0875C39.7995 37.0875 40.4344 36.9612 41.0268 36.7159C41.6191 36.4705 42.1573 36.1109 42.6107 35.6575C43.0641 35.2041 43.4237 34.6659 43.669 34.0736C43.9144 33.4812 44.0407 32.8464 44.0407 32.2052C44.0407 31.5641 43.9144 30.9292 43.669 30.3368C43.4237 29.7445 43.0641 29.2063 42.6107 28.7529C42.1573 28.2995 41.6191 27.9399 41.0268 27.6946C40.4344 27.4492 39.7995 27.3229 39.1584 27.3229ZM36.9266 44.8992H41.3902C43.5065 44.8991 45.2135 44.8991 46.5959 45.0121C48.0194 45.1284 49.2696 45.3741 50.4265 45.9634C52.2637 46.8995 53.7577 48.3934 54.6938 50.2306C55.2831 51.3875 55.529 52.638 55.6453 54.0614C55.7582 55.4438 55.7582 57.1508 55.7582 59.2672V60.5225C55.7582 61.6011 54.8838 62.4754 53.8053 62.4754H24.5115C23.4329 62.4754 22.5586 61.6011 22.5586 60.5225L22.5586 59.2672C22.5586 57.1508 22.5586 55.4438 22.6715 54.0614C22.7878 52.638 23.0335 51.3878 23.6228 50.2309C24.5589 48.3937 26.0528 46.8997 27.8901 45.9635C29.0469 45.3743 30.2974 45.1284 31.7208 45.0121C33.1032 44.8991 34.8102 44.8991 36.9266 44.8992ZM27.1032 52.0036C27.6648 50.9015 28.5609 50.0054 29.663 49.4437ZM29.663 49.4437C30.1779 49.1815 30.8571 49.0015 32.0389 48.9049C33.2435 48.8065 34.7907 48.805 37.0102 48.805H41.3066C43.5261 48.805 45.0732 48.8065 46.2779 48.9049C47.4596 49.0015 48.1389 49.1815 48.6537 49.4437C49.7559 50.0054 50.6519 50.9015 51.2136 52.0036C51.4758 52.5184 51.6558 53.1977 51.7524 54.3795C51.8388 55.4375 51.8505 56.7597 51.8521 58.5696H26.4647C26.4662 56.7597 26.4779 55.4375 26.5644 54.3795C26.6609 53.1979 26.841 52.5184 27.1032 52.0036" fill="#D1D7DD"/>
    <path fill-rule="evenodd" clip-rule="evenodd" d="M57.7121 30.2523C58.7906 30.2523 59.665 31.1267 59.665 32.2052V36.1111H63.5708C64.6494 36.1111 65.5237 36.9854 65.5237 38.064C65.5237 39.1426 64.6494 40.0169 63.5708 40.0169H59.665V43.9227C59.665 45.0013 58.7906 45.8757 57.7121 45.8757C56.6335 45.8757 55.7591 45.0013 55.7591 43.9227V40.0169H51.8533C50.7747 40.0169 49.9004 39.1426 49.9004 38.064C49.9004 36.9854 50.7747 36.1111 51.8533 36.1111H55.7591V32.2052C55.7591 31.1267 56.6335 30.2523 57.7121 30.2523Z" fill="#D1D7DD"/>
    <path fill-rule="evenodd" clip-rule="evenodd" d="M43 82.56C64.8484 82.56 82.56 64.8484 82.56 43C82.56 21.1516 64.8484 3.44 43 3.44C21.1516 3.44 3.44 21.1516 3.44 43C3.44 64.8484 21.1516 82.56 43 82.56ZM43 86C66.7482 86 86 66.7482 86 43C86 19.2518 66.7482 0 43 0C19.2518 0 0 19.2518 0 43C0 66.7482 19.2518 86 43 86Z" fill="#D1D7DD"/>
</svg>
