<svg width="14" height="14" viewBox="0 0 14 14" fill="none" xmlns="http://www.w3.org/2000/svg">
<path d="M12.5413 2.33331H11.2774V3.11109H12.4441V11.6666H1.55522V3.11109H2.72189V2.33331H1.458C1.36709 2.33483 1.27737 2.35425 1.19397 2.39044C1.11057 2.42664 1.03511 2.47892 0.971912 2.54428C0.908714 2.60965 0.859012 2.68682 0.825645 2.7714C0.792278 2.85597 0.775899 2.94629 0.777444 3.0372V11.7405C0.775899 11.8314 0.792278 11.9218 0.825645 12.0063C0.859012 12.0909 0.908714 12.1681 0.971912 12.2335C1.03511 12.2988 1.11057 12.3511 1.19397 12.3873C1.27737 12.4235 1.36709 12.4429 1.458 12.4444H12.5413C12.6322 12.4429 12.722 12.4235 12.8054 12.3873C12.8888 12.3511 12.9642 12.2988 13.0274 12.2335C13.0906 12.1681 13.1403 12.0909 13.1737 12.0063C13.2071 11.9218 13.2234 11.8314 13.2219 11.7405V3.0372C13.2234 2.94629 13.2071 2.85597 13.1737 2.7714C13.1403 2.68682 13.0906 2.60965 13.0274 2.54428C12.9642 2.47892 12.8888 2.42664 12.8054 2.39044C12.722 2.35425 12.6322 2.33483 12.5413 2.33331Z" fill="#898C95"/>
<path d="M3.11133 5.44446H3.88911V6.22224H3.11133V5.44446Z" fill="#898C95"/>
<path d="M5.44434 5.44446H6.22211V6.22224H5.44434V5.44446Z" fill="#898C95"/>
<path d="M7.77783 5.44446H8.55561V6.22224H7.77783V5.44446Z" fill="#898C95"/>
<path d="M10.1113 5.44446H10.8891V6.22224H10.1113V5.44446Z" fill="#898C95"/>
<path d="M3.11133 7.38892H3.88911V8.16669H3.11133V7.38892Z" fill="#898C95"/>
<path d="M5.44434 7.38892H6.22211V8.16669H5.44434V7.38892Z" fill="#898C95"/>
<path d="M7.77783 7.38892H8.55561V8.16669H7.77783V7.38892Z" fill="#898C95"/>
<path d="M10.1113 7.38892H10.8891V8.16669H10.1113V7.38892Z" fill="#898C95"/>
<path d="M3.11133 9.33331H3.88911V10.1111H3.11133V9.33331Z" fill="#898C95"/>
<path d="M5.44434 9.33331H6.22211V10.1111H5.44434V9.33331Z" fill="#898C95"/>
<path d="M7.77783 9.33331H8.55561V10.1111H7.77783V9.33331Z" fill="#898C95"/>
<path d="M10.1113 9.33331H10.8891V10.1111H10.1113V9.33331Z" fill="#898C95"/>
<path d="M3.88889 3.88888C3.99203 3.88888 4.09094 3.84791 4.16387 3.77498C4.23681 3.70205 4.27778 3.60313 4.27778 3.49999V1.16666C4.27778 1.06352 4.23681 0.964605 4.16387 0.891674C4.09094 0.818743 3.99203 0.777771 3.88889 0.777771C3.78575 0.777771 3.68683 0.818743 3.6139 0.891674C3.54097 0.964605 3.5 1.06352 3.5 1.16666V3.49999C3.5 3.60313 3.54097 3.70205 3.6139 3.77498C3.68683 3.84791 3.78575 3.88888 3.88889 3.88888Z" fill="#898C95"/>
<path d="M10.1111 3.88888C10.2142 3.88888 10.3131 3.84791 10.386 3.77498C10.459 3.70205 10.4999 3.60313 10.4999 3.49999V1.16666C10.4999 1.06352 10.459 0.964605 10.386 0.891674C10.3131 0.818743 10.2142 0.777771 10.1111 0.777771C10.0079 0.777771 9.909 0.818743 9.83607 0.891674C9.76314 0.964605 9.72217 1.06352 9.72217 1.16666V3.49999C9.72217 3.60313 9.76314 3.70205 9.83607 3.77498C9.909 3.84791 10.0079 3.88888 10.1111 3.88888Z" fill="#898C95"/>
<path d="M5.05566 2.33331H8.94455V3.11109H5.05566V2.33331Z" fill="#898C95"/>
</svg>
