<svg width="12" height="13" viewBox="0 0 12 13" fill="none" xmlns="http://www.w3.org/2000/svg">
<path d="M8.06373 8.08935C8.36983 8.96528 8.52487 9.73196 8.52487 10.3931C8.52487 11.865 7.90004 13 6.8613 13C6.32896 13 6.14397 12.7238 5.94102 12.051L5.76135 11.4237C5.69481 11.2039 5.57769 10.8283 5.41134 10.3004C5.40688 10.286 5.40015 10.2724 5.39137 10.2599L3.48426 7.50682C3.03299 6.85545 2.3671 6.35479 1.58446 6.07843L0.748022 5.78318C0.492228 5.69281 0.279152 5.52216 0.146253 5.30122C0.0133536 5.08028 -0.0308631 4.8232 0.0213758 4.57516L0.477859 2.40342C0.532201 2.14421 0.665947 1.9048 0.863252 1.71354C1.06056 1.52229 1.31315 1.38721 1.59112 1.32431L7.0809 0.0837545C7.89011 -0.09912 8.74487 0.0201251 9.45928 0.415555C10.1737 0.810985 10.6899 1.45062 10.8958 2.19534L11.9432 5.9839C12.0121 6.23316 12.0184 6.49366 11.9616 6.7455C11.9047 6.99734 11.7862 7.23386 11.6151 7.43699C11.444 7.64013 11.2248 7.8045 10.9744 7.91757C10.7239 8.03063 10.4487 8.08938 10.1698 8.08935H8.06373Z" fill="#D1D8DD"/>
</svg>
