<svg width="19" height="17" viewBox="0 0 19 17" fill="none" xmlns="http://www.w3.org/2000/svg">
<path d="M13.259 11.4526L14.3136 10.3902C14.4784 10.2242 14.7651 10.3404 14.7651 10.5795V15.4065C14.7651 16.2862 14.0565 17 13.1832 17H1.58198C0.708595 17 0 16.2862 0 15.4065V3.72069C0 2.84094 0.708595 2.12718 1.58198 2.12718H10.596C10.83 2.12718 10.9486 2.41268 10.7838 2.58199L9.72917 3.64434C9.67973 3.69414 9.61382 3.72069 9.54131 3.72069H1.58198V15.4065H13.1832V11.6385C13.1832 11.5688 13.2095 11.5024 13.259 11.4526ZM18.4202 4.75316L9.76542 13.471L6.78603 13.803C5.92253 13.8993 5.18757 13.1656 5.28315 12.2892L5.61273 9.28804L14.2675 0.57018C15.0222 -0.19006 16.2416 -0.19006 16.9931 0.57018L18.4169 2.00434C19.1716 2.76459 19.1716 3.99624 18.4202 4.75316ZM15.1639 5.77899L13.2491 3.85017L7.1255 10.0217L6.8849 12.1896L9.03705 11.9472L15.1639 5.77899ZM17.2996 3.13309L15.8758 1.69892C15.7407 1.56281 15.5199 1.56281 15.388 1.69892L14.3696 2.72475L16.2845 4.65357L17.3029 3.62774C17.4347 3.48831 17.4347 3.2692 17.2996 3.13309Z" fill="#D1D8DD"/>
</svg>
