<svg width="13" height="10" viewBox="0 0 13 10" fill="none" xmlns="http://www.w3.org/2000/svg">
<path d="M12.793 4.43382C11.3929 1.48434 9.27639 0 6.43915 0C3.60044 0 1.48544 1.48434 0.0852873 4.4353C0.0291265 4.55422 0 4.6841 0 4.81562C0 4.94713 0.0291265 5.07701 0.0852873 5.19593C1.48544 8.14541 3.60192 9.62975 6.43915 9.62975C9.27786 9.62975 11.3929 8.14541 12.793 5.19446C12.9067 4.95519 12.9067 4.67752 12.793 4.43382ZM6.43915 8.56635C4.05682 8.56635 2.31254 7.3582 1.08223 4.81488C2.31254 2.27156 4.05682 1.06341 6.43915 1.06341C8.82148 1.06341 10.5658 2.27156 11.7961 4.81488C10.5672 7.3582 8.82296 8.56635 6.43915 8.56635ZM6.38007 2.21543C4.94447 2.21543 3.78063 3.37928 3.78063 4.81488C3.78063 6.25048 4.94447 7.41432 6.38007 7.41432C7.81568 7.41432 8.97952 6.25048 8.97952 4.81488C8.97952 3.37928 7.81568 2.21543 6.38007 2.21543ZM6.38007 6.46907C5.46584 6.46907 4.72588 5.72911 4.72588 4.81488C4.72588 3.90064 5.46584 3.16069 6.38007 3.16069C7.29431 3.16069 8.03427 3.90064 8.03427 4.81488C8.03427 5.72911 7.29431 6.46907 6.38007 6.46907Z" fill="#D1D8DD"/>
</svg>
