<svg width="12" height="14" viewBox="0 0 12 14" fill="none" xmlns="http://www.w3.org/2000/svg">
<path d="M3.93627 5.28841C3.63017 4.34509 3.47513 3.51944 3.47513 2.80749C3.47513 1.2223 4.09996 1.48263e-05 5.1387 1.47578e-05C5.67104 1.47226e-05 5.85603 0.297489 6.05898 1.022L6.23865 1.69759C6.30519 1.93425 6.4223 2.33881 6.58866 2.90731C6.59312 2.92275 6.59985 2.93745 6.60862 2.95094L8.51574 5.91575C8.96701 6.61723 9.6329 7.1564 10.4155 7.45401L11.252 7.77197C11.5078 7.86929 11.7208 8.05307 11.8537 8.29101C11.9866 8.52894 12.0309 8.8058 11.9786 9.07292L11.5221 11.4117C11.4678 11.6909 11.3341 11.9487 11.1367 12.1547C10.9394 12.3606 10.6868 12.5061 10.4089 12.5738L4.91911 13.9098C4.10989 14.1068 3.25513 13.9783 2.54072 13.5525C1.82632 13.1266 1.31005 12.4378 1.10421 11.6358L0.0568268 7.55581C-0.0121293 7.28738 -0.0184173 7.00685 0.0384427 6.73564C0.0953027 6.46442 0.213807 6.20971 0.384903 5.99095C0.555999 5.77219 0.775161 5.59517 1.02565 5.47341C1.27614 5.35165 1.55132 5.28837 1.83019 5.28841L3.93627 5.28841Z" fill="#D1D8DD"/>
</svg>
