<svg width="11" height="13" viewBox="0 0 11 13" fill="none" xmlns="http://www.w3.org/2000/svg">
<path d="M9.77778 7.5309V5.2C9.77778 3.10895 8.4425 1.34745 6.63361 0.8177C6.45456 0.338 6.017 0 5.5 0C4.983 0 4.54544 0.338 4.36639 0.8177C2.5575 1.3481 1.22222 3.10895 1.22222 5.2V7.5309L0.179056 8.64045C0.122197 8.70071 0.0771043 8.77233 0.0463744 8.8512C0.0156445 8.93007 -0.000115774 9.01463 6.40245e-07 9.1V10.4C6.40245e-07 10.5724 0.0643853 10.7377 0.178991 10.8596C0.293596 10.9815 0.449035 11.05 0.611112 11.05H10.3889C10.551 11.05 10.7064 10.9815 10.821 10.8596C10.9356 10.7377 11 10.5724 11 10.4V9.1C11.0001 9.01463 10.9844 8.93007 10.9536 8.8512C10.9229 8.77233 10.8778 8.70071 10.8209 8.64045L9.77778 7.5309ZM9.77778 9.75H1.22222V9.3691L2.26539 8.25955C2.32225 8.19929 2.36734 8.12766 2.39807 8.0488C2.4288 7.96993 2.44456 7.88537 2.44444 7.8V5.2C2.44444 3.40795 3.81517 1.95 5.5 1.95C7.18483 1.95 8.55556 3.40795 8.55556 5.2V7.8C8.55556 7.9729 8.61972 8.138 8.73461 8.25955L9.77778 9.3691V9.75ZM5.5 13C5.87846 13.0005 6.24767 12.8756 6.5563 12.6426C6.86493 12.4096 7.09765 12.0802 7.22211 11.7H3.77789C3.90235 12.0802 4.13507 12.4096 4.4437 12.6426C4.75233 12.8756 5.12154 13.0005 5.5 13Z" fill="white"/>
</svg>
