<svg width="62" height="62" viewBox="0 0 62 62" fill="none" xmlns="http://www.w3.org/2000/svg">
<circle cx="31.422" cy="30.8444" r="30.0778" fill="white" stroke="#D1D8DD"/>
<path d="M36.9322 31.7678C36.9322 33.1616 36.3785 34.4983 35.3929 35.4839C34.4073 36.4695 33.0706 37.0232 31.6768 37.0232C30.283 37.0232 28.9462 36.4695 27.9607 35.4839C26.9751 34.4983 26.4214 33.1616 26.4214 31.7678C26.4214 30.3739 26.9751 29.0372 27.9607 28.0516C28.9462 27.0661 30.283 26.5124 31.6768 26.5124C33.0706 26.5124 34.4073 27.0661 35.3929 28.0516C36.3785 29.0372 36.9322 30.3739 36.9322 31.7678Z" fill="#898C95"/>
<path d="M19.0632 22.308C17.9482 22.308 16.8788 22.751 16.0903 23.5394C15.3018 24.3279 14.8589 25.3973 14.8589 26.5123V39.1253C14.8589 40.2404 15.3018 41.3097 16.0903 42.0982C16.8788 42.8867 17.9482 43.3296 19.0632 43.3296H44.2891C45.4042 43.3296 46.4736 42.8867 47.262 42.0982C48.0505 41.3097 48.4934 40.2404 48.4934 39.1253V26.5123C48.4934 25.3973 48.0505 24.3279 47.262 23.5394C46.4736 22.751 45.4042 22.308 44.2891 22.308H41.8254C40.7104 22.3078 39.6412 21.8647 38.8529 21.0762L37.1124 19.3356C36.3241 18.547 35.2549 18.1039 34.1399 18.1037H29.2124C28.0975 18.1039 27.0283 18.547 26.24 19.3356L24.4994 21.0762C23.7111 21.8647 22.6419 22.3078 21.5269 22.308H19.0632ZM20.1143 26.5123C19.8355 26.5123 19.5682 26.4016 19.3711 26.2045C19.1739 26.0074 19.0632 25.74 19.0632 25.4613C19.0632 25.1825 19.1739 24.9151 19.3711 24.718C19.5682 24.5209 19.8355 24.4102 20.1143 24.4102C20.3931 24.4102 20.6604 24.5209 20.8575 24.718C21.0546 24.9151 21.1654 25.1825 21.1654 25.4613C21.1654 25.74 21.0546 26.0074 20.8575 26.2045C20.6604 26.4016 20.3931 26.5123 20.1143 26.5123ZM39.0337 31.7677C39.0337 33.7191 38.2586 35.5905 36.8787 36.9703C35.4989 38.3501 33.6275 39.1253 31.6762 39.1253C29.7248 39.1253 27.8534 38.3501 26.4736 36.9703C25.0938 35.5905 24.3186 33.7191 24.3186 31.7677C24.3186 29.8164 25.0938 27.945 26.4736 26.5652C27.8534 25.1853 29.7248 24.4102 31.6762 24.4102C33.6275 24.4102 35.4989 25.1853 36.8787 26.5652C38.2586 27.945 39.0337 29.8164 39.0337 31.7677Z" fill="#898C95"/>
</svg>
