<svg width="24" height="25" viewBox="0 0 24 25" fill="none" xmlns="http://www.w3.org/2000/svg">
<path d="M23.088 10.7217L20.475 9.94171C20.2943 9.31093 20.0459 8.70158 19.734 8.12431L21.0132 5.72971C21.0612 5.63932 21.0788 5.53586 21.0633 5.4347C21.0479 5.33353 21.0002 5.24004 20.9274 5.16811L19.0632 3.29611C18.9913 3.22331 18.8978 3.17564 18.7966 3.16019C18.6954 3.14473 18.592 3.16231 18.5016 3.21031L16.1226 4.48171C15.5396 4.15462 14.9223 3.89303 14.2818 3.70171L13.5018 1.11991C13.4688 1.02476 13.4065 0.942534 13.3238 0.885066C13.2411 0.827598 13.1423 0.797851 13.0416 0.800107H10.4052C10.3039 0.800579 10.2054 0.833362 10.124 0.893686C10.0427 0.954011 9.98269 1.03873 9.9528 1.13551L9.1728 3.70951C8.52697 3.89981 7.90434 4.16142 7.3164 4.48951L4.9764 3.22591C4.88601 3.17791 4.78256 3.16033 4.68139 3.17579C4.58022 3.19124 4.48673 3.23891 4.4148 3.31171L2.5194 5.16031C2.4466 5.23224 2.39894 5.32573 2.38348 5.4269C2.36803 5.52806 2.3856 5.63152 2.4336 5.72191L3.6972 8.06191C3.36964 8.64737 3.10804 9.26736 2.9172 9.91051L0.3354 10.6905C0.23862 10.7204 0.153903 10.7804 0.0935791 10.8618C0.0332549 10.9431 0.000471568 11.0416 0 11.1429V13.7793C0.000471568 13.8806 0.0332549 13.9791 0.0935791 14.0605C0.153903 14.1418 0.23862 14.2018 0.3354 14.2317L2.9328 15.0117C3.12573 15.6441 3.38729 16.2536 3.7128 16.8291L2.4336 19.2783C2.3856 19.3687 2.36803 19.4722 2.38348 19.5733C2.39894 19.6745 2.4466 19.768 2.5194 19.8399L4.3836 21.7041C4.45553 21.7769 4.54902 21.8246 4.65019 21.84C4.75136 21.8555 4.85481 21.8379 4.9452 21.7899L7.3554 20.5029C7.92555 20.8106 8.52697 21.0564 9.1494 21.2361L9.9294 23.8647C9.95929 23.9615 10.0193 24.0462 10.1006 24.1065C10.182 24.1669 10.2805 24.1996 10.3818 24.2001H13.0182C13.1195 24.1996 13.218 24.1669 13.2994 24.1065C13.3807 24.0462 13.4407 23.9615 13.4706 23.8647L14.2506 21.2283C14.8677 21.0476 15.4639 20.8018 16.029 20.4951L18.4548 21.7899C18.5452 21.8379 18.6486 21.8555 18.7498 21.84C18.851 21.8246 18.9445 21.7769 19.0164 21.7041L20.8806 19.8399C20.9534 19.768 21.0011 19.6745 21.0165 19.5733C21.032 19.4722 21.0144 19.3687 20.9664 19.2783L19.6716 16.8603C19.9815 16.293 20.2299 15.6942 20.4126 15.0741L23.0412 14.2941C23.138 14.2642 23.2227 14.2042 23.283 14.1229C23.3433 14.0415 23.3761 13.943 23.3766 13.8417V11.1819C23.3812 11.0849 23.356 10.9888 23.3044 10.9066C23.2528 10.8243 23.1773 10.7598 23.088 10.7217ZM11.7234 16.7901C10.8749 16.7901 10.0455 16.5385 9.34 16.0671C8.63452 15.5957 8.08466 14.9257 7.75996 14.1418C7.43526 13.3579 7.3503 12.4953 7.51583 11.6632C7.68136 10.831 8.08994 10.0666 8.68991 9.46662C9.28988 8.86665 10.0543 8.45807 10.8865 8.29254C11.7186 8.12701 12.5812 8.21197 13.3651 8.53666C14.149 8.86137 14.819 9.41122 15.2904 10.1167C15.7618 10.8222 16.0134 11.6516 16.0134 12.5001C16.0134 13.6379 15.5614 14.7291 14.7569 15.5336C13.9524 16.3381 12.8612 16.7901 11.7234 16.7901Z" fill="#898C95" fill-opacity="0.7"/>
</svg>
