<svg width="10" height="10" viewBox="0 0 10 10" fill="none" xmlns="http://www.w3.org/2000/svg">
<path d="M4.12632 1.92595H6.05227C6.05227 1.67055 5.95081 1.42562 5.77022 1.24502C5.58962 1.06443 5.34469 0.962975 5.08929 0.962975C4.83389 0.962975 4.58896 1.06443 4.40836 1.24502C4.22777 1.42562 4.12632 1.67055 4.12632 1.92595ZM3.16334 1.92595C3.16334 1.41516 3.36625 0.925284 3.72744 0.564098C4.08862 0.202912 4.5785 0 5.08929 0C5.60008 0 6.08996 0.202912 6.45114 0.564098C6.81233 0.925284 7.01524 1.41516 7.01524 1.92595H9.42268C9.55038 1.92595 9.67285 1.97668 9.76314 2.06698C9.85344 2.15727 9.90417 2.27974 9.90417 2.40744C9.90417 2.53514 9.85344 2.65761 9.76314 2.7479C9.67285 2.8382 9.55038 2.88893 9.42268 2.88893H8.99801L8.57141 7.86751C8.5304 8.34826 8.31043 8.7961 7.95503 9.12243C7.59964 9.44876 7.13469 9.62981 6.6522 9.62975H3.52638C3.04389 9.62981 2.57895 9.44876 2.22355 9.12243C1.86815 8.7961 1.64818 8.34826 1.60717 7.86751L1.18057 2.88893H0.755902C0.628203 2.88893 0.505735 2.8382 0.415439 2.7479C0.325142 2.65761 0.274414 2.53514 0.274414 2.40744C0.274414 2.27974 0.325142 2.15727 0.415439 2.06698C0.505735 1.97668 0.628203 1.92595 0.755902 1.92595H3.16334ZM6.53375 4.81488C6.53375 4.68718 6.48303 4.56471 6.39273 4.47441C6.30243 4.38412 6.17997 4.33339 6.05227 4.33339C5.92457 4.33339 5.8021 4.38412 5.7118 4.47441C5.62151 4.56471 5.57078 4.68718 5.57078 4.81488V6.74083C5.57078 6.86853 5.62151 6.99099 5.7118 7.08129C5.8021 7.17159 5.92457 7.22232 6.05227 7.22232C6.17997 7.22232 6.30243 7.17159 6.39273 7.08129C6.48303 6.99099 6.53375 6.86853 6.53375 6.74083V4.81488ZM4.12632 4.33339C4.25401 4.33339 4.37648 4.38412 4.46678 4.47441C4.55708 4.56471 4.6078 4.68718 4.6078 4.81488V6.74083C4.6078 6.86853 4.55708 6.99099 4.46678 7.08129C4.37648 7.17159 4.25401 7.22232 4.12632 7.22232C3.99862 7.22232 3.87615 7.17159 3.78585 7.08129C3.69556 6.99099 3.64483 6.86853 3.64483 6.74083V4.81488C3.64483 4.68718 3.69556 4.56471 3.78585 4.47441C3.87615 4.38412 3.99862 4.33339 4.12632 4.33339ZM2.5663 7.78566C2.58681 8.02611 2.69686 8.2501 2.87466 8.41328C3.05246 8.57646 3.28505 8.66693 3.52638 8.66678H6.6522C6.89336 8.66669 7.12572 8.57611 7.30331 8.41295C7.48091 8.2498 7.59083 8.02595 7.61132 7.78566L8.03118 2.88893H2.1474L2.56726 7.78566H2.5663Z" fill="#D1D8DD"/>
</svg>
