<svg width="22" height="19" viewBox="0 0 22 19" fill="none" xmlns="http://www.w3.org/2000/svg">
<path d="M22 2.52232C21.191 2.8752 20.3219 3.11363 19.4082 3.22141C20.3509 2.66613 21.0562 1.7922 21.3925 0.762673C20.5068 1.28054 19.5374 1.64507 18.5265 1.8404C17.8467 1.12592 16.9462 0.652351 15.965 0.493218C14.9837 0.334085 13.9766 0.498289 13.0999 0.960338C12.2231 1.42239 11.5259 2.15643 11.1164 3.0485C10.7069 3.94057 10.6081 4.94075 10.8353 5.89377C9.04057 5.80507 7.28485 5.3459 5.68208 4.54605C4.07931 3.74621 2.66531 2.62357 1.53184 1.25099C1.14428 1.90906 0.921431 2.67205 0.921431 3.48464C0.920998 4.21615 1.104 4.93645 1.45421 5.58165C1.80442 6.22684 2.311 6.77697 2.92901 7.18323C2.21228 7.16078 1.51137 6.97015 0.884612 6.6272V6.68442C0.88454 7.71039 1.24508 8.7048 1.90505 9.49889C2.56502 10.293 3.48377 10.8379 4.50542 11.0411C3.84054 11.2182 3.14346 11.2443 2.46684 11.1174C2.75508 12.0002 3.31656 12.7721 4.07267 13.3252C4.82878 13.8783 5.74166 14.1848 6.68352 14.2018C5.08466 15.4373 3.11008 16.1074 1.07742 16.1045C0.71736 16.1046 0.357601 16.0839 0 16.0425C2.06326 17.3483 4.46505 18.0413 6.918 18.0387C15.2215 18.0387 19.7609 11.269 19.7609 5.39783C19.7609 5.20708 19.756 5.01443 19.7473 4.82368C20.6302 4.19515 21.3924 3.41682 21.9981 2.52518L22 2.52232Z" fill="#000000"/>
</svg>
